HIERARCHY
ROOT pelvis
{
  OFFSET 0 100 0
  CHANNELS 6 Xposition Yposition Zposition Zrotation Xrotation Yrotation
  JOINT pelvis_right_femur
  {
    OFFSET -10.78128 -3.44521 -0.5502486
    CHANNELS 3 Zrotation Xrotation Yrotation
    JOINT right_femur_tibia
    {
      OFFSET -0.8047443 -44.0398 -0.1307829
      CHANNELS 3 Zrotation Xrotation Yrotation
      JOINT right_tibia_foot
      {
        OFFSET 3.006224 -47.83518 -5
        CHANNELS 3 Zrotation Xrotation Yrotation
        End Site
        {
          OFFSET 0 -5 15
        }
      }
    }
  }
  JOINT pelvis_left_femur
  {
    OFFSET 10.78128 -3.44521 -0.5502486
    CHANNELS 3 Zrotation Xrotation Yrotation
    JOINT left_femur_tibia
    {
      OFFSET 0.8047443 -44.0398 -0.1307829
      CHANNELS 3 Zrotation Xrotation Yrotation
      JOINT left_tibia_foot
      {
        OFFSET -4.370144 -48.10324 -4.275266
        CHANNELS 3 Zrotation Xrotation Yrotation
        End Site
        {
          OFFSET 0 -5 15
        }
      }
    }
  }
  JOINT pelvis_spine1
  {
    OFFSET 0 6.468898 -3.129235
    CHANNELS 3 Zrotation Xrotation Yrotation
    JOINT spine1
    {
      OFFSET 0 23.15396 4.99043
      CHANNELS 3 Zrotation Xrotation Yrotation
      JOINT spine2
      {
        OFFSET 0 20.79997 -5.064912
        CHANNELS 3 Zrotation Xrotation Yrotation
        JOINT neck
        {
          OFFSET 0 14.38658 9.616178
          CHANNELS 3 Zrotation Xrotation Yrotation
          End Site
          {
            OFFSET 0 20 0
          }
        }
      }
      JOINT right_manubrium
      {
        OFFSET -5.722621 16.35077 3.967754
        CHANNELS 3 Zrotation Xrotation Yrotation
        JOINT right_clavicle
        {
          OFFSET -13.16364 1.694482 -4.693211
          CHANNELS 3 Zrotation Xrotation Yrotation
          JOINT right_humerus
          {
            OFFSET -28.5034 -0.3100689 -2.792744
            CHANNELS 3 Zrotation Xrotation Yrotation
            JOINT right_radius
            {
              OFFSET -25.15693 0.02248979 -1.271978
              CHANNELS 3 Zrotation Xrotation Yrotation
              End Site
              {
                OFFSET -15 0 0
              }
            }
          }
        }
      }
      JOINT left_manubrium
      {
        OFFSET 5.722621 16.35077 3.967754
        CHANNELS 3 Zrotation Xrotation Yrotation
        JOINT left_clavicle
        {
          OFFSET 13.16364 1.694482 -4.693211
          CHANNELS 3 Zrotation Xrotation Yrotation
          JOINT left_humerus
          {
            OFFSET 29.39168 -1.063119 -2.237045
            CHANNELS 3 Zrotation Xrotation Yrotation
            JOINT left_radius
            {
              OFFSET 24.59957 -0.9528479 0.9047498
              CHANNELS 3 Zrotation Xrotation Yrotation
              End Site
              {
                OFFSET 15 -0 -0
              }
            }
          }
        }
      }
    }
  }
}
MOTION
Frames: 11
Frame Time: 0.0416666666667
-264.3172 110.0394 2599.768 -1.671007 2.607623 -20.71719 9.474653 -21.13308 7.232901 -0 16.64297 -0 -9.029517 -8.197033 -0.8647155 -2.619228 4.472925 -10.70169 -0 44.54013 -0 4.388789 -5.810195 11.91921 1.353074 -1.394024 7.705812 -0.8456575 14.71257 -4.5227 1.992331 20.01421 1.681964 -1.519255 -20.37328 5.841012 -5.269441 -29.72605 10.90239 92.04511 19.27817 -7.935944 -0 0 25.49812 -22.08039 13.95789 16.01456 0.9720906 -18.98991 -6.055062 -93.11053 13.79736 36.50054 0 0 -13.75547 1.221222 10.65514 14.65848
-266.09 111.0648 2605.098 -1.632328 1.267937 -21.21181 8.615881 -16.31377 6.568689 -0 15.60418 -0 -9.126317 -8.874586 -0.6477791 -2.16006 -0.1055731 -9.389113 -0 48.89404 -0 4.691484 -3.927622 11.43627 1.358778 -1.388002 7.727006 -0.8518113 14.71297 -4.506969 1.988014 19.99281 1.671703 -1.530919 -20.36613 5.832917 -5.261073 -29.7755 10.90523 91.98965 19.28367 -7.841768 -0 0 25.62019 -22.08658 13.99495 16.05211 0.960715 -18.9412 -6.041075 -93.15338 13.7682 36.62171 0 0 -13.68379 1.181186 10.62799 14.70421
-267.8019 112.0161 2610.338 -1.473245 -0.09777657 -21.70846 7.734573 -11.4948 5.917925 -0 14.19107 -0 -9.050959 -9.284893 -0.3800785 -1.559431 -5.022402 -7.949822 -0 50.65131 -0 5.313166 -2.763546 11.38728 1.364337 -1.381231 7.749134 -0.8582618 14.71249 -4.489944 1.983511 19.9708 1.660992 -1.543199 -20.35831 5.824525 -5.251996 -29.8269 10.90812 91.93027 19.28961 -7.741341 -0 0 25.74862 -22.09296 14.03316 16.09171 0.948801 -18.8888 -6.02594 -93.19894 13.73832 36.74897 0 0 -13.60668 1.138327 10.59916 14.75289
-269.4377 112.7383 2615.472 -1.306625 -1.326138 -22.11932 7.037801 -6.909134 5.387544 -0 12.67946 -0 -8.815406 -9.530826 -0.1352594 -0.66071 -9.821255 -6.303904 -0 49.14626 -0 6.179463 -2.17401 11.67405 1.3693 -1.373596 7.771362 -0.8648178 14.7106 -4.471871 1.979002 19.94923 1.650207 -1.555717 -20.34984 5.816174 -5.242351 -29.87817 10.91089 91.86835 19.29609 -7.637073 -0 0 25.87918 -22.09921 14.07078 16.13212 0.9367034 -18.83366 -6.009912 -93.24596 13.70914 36.87811 0 0 -13.52549 1.093602 10.56943 14.80331
-270.9783 113.1012 2620.524 -1.274349 -2.290791 -22.41006 6.677279 -2.689963 5.043633 -0 11.42778 -0 -8.420146 -9.840182 -0.01307254 0.6644828 -14.08028 -4.400028 -0 44.26584 -0 7.13117 -1.858431 12.11968 1.373021 -1.364869 7.79252 -0.8712317 14.70656 -4.453043 1.974744 19.9296 1.639859 -1.567957 -20.34069 5.808334 -5.232314 -29.92635 10.91331 91.8057 19.30343 -7.532182 -0 0 26.006 -22.10492 14.10537 16.17166 0.9248766 -18.77698 -5.993325 -93.29277 13.68261 37.00333 0 0 -13.44196 1.048291 10.5399 14.85388
-272.4016 113.0312 2625.558 -1.494949 -2.950388 -22.60901 6.681545 1.128756 4.861389 -0 10.76485 -0 -7.879041 -10.47243 -0.09737431 2.397487 -17.44766 -2.2998 -0 36.60968 -0 7.918645 -1.515899 12.514 1.37459 -1.354678 7.810988 -0.8771787 14.69931 -4.433834 1.971099 19.914 1.630642 -1.57922 -20.33077 5.801653 -5.222119 -29.96733 10.91507 91.74483 19.31214 -7.431013 -0 0 26.12097 -22.10947 14.13351 16.208 0.9139168 -18.72032 -5.976622 -93.33703 13.66145 37.11668 0 0 -13.3583 1.004127 10.51204 14.90246
-273.6948 112.5389 2630.666 -2.01364 -3.38952 -22.79495 6.920069 4.603637 4.700846 -0 10.9137 -0 -7.298638 -11.60477 -0.4119746 4.258107 -19.66032 -0.2849824 -0 27.55111 -0 8.235119 -0.9953313 12.71464 1.372833 -1.342531 7.824648 -0.8822449 14.68751 -4.414742 1.96854 19.90517 1.62345 -1.588592 -20.31993 5.796968 -5.212081 -29.99575 10.91576 91.68903 19.32298 -7.339282 -0 0 26.21348 -22.11208 14.15078 16.2381 0.9045815 -18.66576 -5.960407 -93.37567 13.64919 37.2078 0 0 -13.27743 0.9634056 10.48782 14.94624
-274.8713 111.7279 2635.956 -2.759752 -3.814553 -23.07044 7.10989 7.867383 4.333625 -0 11.92972 -0 -6.934111 -13.19209 -0.8801854 5.696231 -20.60999 1.096988 -0 19.00399 -0 7.798266 -0.3818982 12.7741 1.366569 -1.327986 7.831185 -0.8859705 14.66992 -4.396454 1.967581 19.906 1.619257 -1.595058 -20.3081 5.795176 -5.202603 -30.00578 10.91495 91.64226 19.33678 -7.263713 -0 0 26.27171 -22.1119 14.15248 16.25853 0.8976988 -18.61592 -5.945457 -93.4051 13.64949 37.26519 0 0 -13.20314 0.9288945 10.46948 14.98193
-275.9814 110.7739 2641.528 -3.538461 -4.461816 -23.51761 6.899768 11.07134 3.555542 -0 13.68041 -0 -7.107231 -14.81153 -1.316678 6.107624 -20.41315 1.201416 -0 12.73667 -0 6.487108 0.03458055 12.97683 1.355172 -1.311008 7.828845 -0.8879699 14.64617 -4.37989 1.968586 19.9184 1.618801 -1.597787 -20.29542 5.7969 -5.194148 -29.99316 10.91242 91.60837 19.3541 -7.21071 -0 0 26.28612 -22.10829 14.13546 16.26647 0.8939218 -18.57379 -5.93269 -93.42193 13.66459 37.27961 0 0 -13.13996 0.9033921 10.45899 15.00641
-277.1052 109.8781 2647.434 -4.10157 -5.451409 -24.14045 6.039098 14.26232 2.357352 -0 15.97646 -0 -7.993561 -15.6478 -1.486858 5.201077 -19.34948 -0.3299982 -0 9.554363 -0 4.480242 -0.07283376 13.66507 1.33912 -1.292289 7.817276 -0.8880711 14.61747 -4.36614 1.97157 19.94213 1.622244 -1.596464 -20.2824 5.802148 -5.187167 -29.95737 10.90832 91.59014 19.37482 -7.184533 -0 0 26.25353 -22.1012 14.10002 16.2608 0.8934606 -18.54224 -5.923025 -93.42399 13.69381 37.248 0 0 -13.09264 0.8890472 10.45735 15.01757
-278.3253 109.2197 2653.651 -4.281857 -6.715017 -24.83691 4.529598 17.26031 0.9916168 -0 18.81953 -0 -9.489743 -14.81368 -1.215265 3.199411 -17.68285 -3.275223 -0 9.062398 -0 2.250071 -0.8521196 14.95099 1.319987 -1.273226 7.797757 -0.8863659 14.58646 -4.356238 1.976169 19.97464 1.629088 -1.591408 -20.26991 5.810263 -5.182029 -29.90219 10.90317 91.58848 19.39789 -7.186147 -0 0 26.17843 -22.09123 14.05007 16.24254 0.8960384 -18.5234 -5.917167 -93.41108 13.73349 37.17478 0 0 -13.065 0.8867648 10.46427 15.01497
